<svg version="1" xmlns="http://www.w3.org/2000/svg" width="256" height="256" viewBox="0 0 192.000000 192.000000"><path d="M79.5 6.9c-12.7 3.7-21.9 9.6-27.8 17.8-2 2.9-5.2 5.5-9.2 7.6-7 3.7-16.3 12.5-19 18.2-2.8 5.5-2.8 17.5 0 23 6.4 13.2 26.9 24.9 50.9 29 11.7 2 33.6 1.9 45.7-.1 23.5-4 44-15.8 50.4-28.9 2.7-5.5 2.8-17.5.1-22.8-2.9-5.9-9.8-12.9-16.7-17-4.3-2.5-7.2-5.1-8.9-7.8-5.1-8.4-16.8-16-29.8-19.4-8.4-2.1-27.8-1.9-35.7.4zM30.3 91.1c-.6.8-2.3 4.3-3.8 7.9-3.3 7.7-4.4 21.2-2.6 30.1 2.9 13.7 12.6 26.6 24.6 32.4 5.1 2.6 7.4 3 16.1 3.3 10.1.4 10.2.4 17.2-3.3 3.9-2 7.9-4.6 8.8-5.7 1.8-1.9 1.8-2-.1-3-1.1-.6-5.4-4.4-9.5-8.3-4.1-3.9-10.9-9.9-15.1-13.3-4.2-3.4-12.8-11.2-19.2-17.4-9.8-9.6-11.7-12-12.7-15.8-1.8-7.3-2.4-8.4-3.7-6.9zM159 94.7c-.6 2.6-1.4 5.6-1.7 6.5-.5 2-25 25.5-33.3 32-3.1 2.4-8.3 7.1-11.6 10.4-3.4 3.4-7.5 7-9.3 8-1.7 1-3 2.3-2.8 2.9.6 2 10 7.5 15.5 9.1 8.5 2.5 20.3 1.6 27.8-2.2 11.9-5.9 21.6-18.7 24.5-32.4 1.8-8.6.7-22.3-2.6-30-3.9-9.5-4.9-10.2-6.5-4.3z"/></svg>